# xmcd
#
# Track frame offsets:
#	150
#	14540
#	34415
#	50595
#	67265
#	92290
#	103973
#	122875
#	140755
#	159728
#	177083
#	194830
#
# Disc length: 2991 seconds
#
# Revision: 5
# Processed by: cddbd v1.4PL0 Copyright (c) Steve Scherf et al.
# Submitted via: EasyCDDAExtractor 6.0.0.1
#
DISCID=b90bad0c
DTITLE=Sergio Caputo - Ne approfitto per fare un pò di musica (Live)
DYEAR=1987
DGENRE=Blues
TTITLE0=Il garibaldi innamorato
TTITLE1=L'astronave che va
TTITLE2=Trio vocale militare
TTITLE3=t'ho incontrata domani
TTITLE4=spicchio di luna
TTITLE5=vado alle hawai
TTITLE6=hemingway caffè latino
TTITLE7=un sabato italiano
TTITLE8=mercy bocù
TTITLE9=la jena si è svegliata
TTITLE10=bimba se sapessi
TTITLE11=italiani mambo
EXTD=
EXTT0=
EXTT1=
EXTT2=
EXTT3=
EXTT4=
EXTT5=
EXTT6=
EXTT7=
EXTT8=
EXTT9=
EXTT10=
EXTT11=
PLAYORDER=
